<?xml version="1.0" standalone="no"?>
<!DOCTYPE svg PUBLIC "-//W3C//DTD SVG 20010904//EN"
 "http://www.w3.org/TR/2001/REC-SVG-20010904/DTD/svg10.dtd">
<svg version="1.0" xmlns="http://www.w3.org/2000/svg"
 width="1280.000000pt" height="1280.000000pt" viewBox="0 0 1280.000000 1280.000000"
 preserveAspectRatio="xMidYMid meet">
<metadata>
Created by potrace 1.15, written by Peter Selinger 2001-2017
</metadata>
<g transform="translate(0.000000,1280.000000) scale(0.100000,-0.100000)"
fill="#000000" stroke="none">
<path d="M8795 10220 c-11 -4 -84 -16 -163 -25 -148 -17 -188 -28 -235 -65
-25 -20 -36 -22 -87 -17 -85 9 -100 -5 -109 -110 -4 -52 -12 -88 -23 -100 -19
-22 -111 -171 -121 -195 -3 -10 -34 -59 -69 -110 -72 -106 -88 -135 -88 -154
0 -7 -12 -38 -26 -69 l-26 -55 -53 6 c-40 5 -58 2 -79 -11 -20 -14 -36 -16
-69 -10 -74 13 -119 11 -127 -5 -4 -8 -12 -25 -18 -37 -7 -13 -12 -36 -12 -53
0 -43 -82 -125 -132 -133 -21 -3 -73 -22 -117 -41 -43 -20 -81 -36 -84 -36 -3
0 -3 15 0 33 11 67 -66 76 -151 17 l-46 -31 2 58 3 57 -55 38 c-59 40 -93 46
-124 23 -30 -23 -43 -18 -56 20 -17 53 -57 95 -88 95 -18 0 -62 -26 -128 -75
-88 -64 -105 -82 -128 -130 -14 -31 -26 -62 -26 -70 0 -8 -16 -32 -35 -54 -19
-21 -38 -54 -41 -72 -11 -56 -17 -59 -130 -59 -149 0 -196 -12 -239 -62 l-34
-41 -61 23 c-54 20 -68 22 -108 12 -33 -7 -64 -7 -102 0 -30 6 -98 8 -150 4
-214 -13 -350 -87 -350 -188 0 -20 -6 -43 -14 -51 -37 -36 -56 -83 -56 -137
-1 -30 -7 -66 -15 -80 -26 -45 -19 -93 19 -131 18 -19 42 -39 52 -45 23 -13
12 -44 -16 -44 -34 0 -120 -49 -132 -75 -6 -14 -18 -25 -25 -25 -8 0 -30 -12
-49 -26 -29 -23 -40 -26 -77 -20 -116 19 -132 19 -182 -5 -36 -17 -64 -23
-100 -21 -121 6 -170 1 -257 -22 -99 -28 -198 -33 -278 -15 -25 5 -169 14
-321 19 -203 7 -287 13 -320 24 -24 9 -64 16 -89 16 -46 0 -159 23 -195 39
-11 5 -34 14 -52 21 -17 6 -50 31 -72 55 -41 44 -131 176 -131 193 0 15 -80
102 -94 102 -6 0 -39 23 -71 51 -87 73 -201 149 -254 168 -25 9 -66 28 -91 43
-53 31 -68 34 -137 23 -76 -11 -152 -53 -188 -104 -28 -39 -30 -51 -35 -148
-6 -115 2 -102 -85 -144 -39 -19 -42 -46 -10 -102 18 -33 25 -61 25 -94 -2
-118 0 -131 24 -177 22 -42 23 -48 8 -52 -9 -3 -24 -9 -32 -13 -8 -4 -44 -16
-80 -25 l-66 -18 -64 26 c-87 36 -167 36 -200 1 -13 -14 -33 -25 -45 -25 -22
0 -86 39 -179 109 -50 39 -66 45 -116 49 -89 7 -155 -19 -237 -90 -116 -101
-113 -97 -113 -137 0 -32 9 -45 72 -107 79 -77 130 -100 192 -88 44 8 121 -31
110 -56 -4 -8 -9 -29 -11 -46 -6 -37 13 -55 65 -64 l37 -6 -30 -29 c-16 -17
-41 -37 -55 -46 -24 -16 -24 -18 -13 -61 16 -58 7 -118 -17 -118 -9 0 -45 -19
-78 -41 l-62 -42 -49 22 c-52 22 -97 27 -119 12 -7 -4 -17 -32 -22 -62 -5 -30
-13 -72 -19 -94 -18 -68 -13 -106 19 -155 16 -25 30 -49 30 -54 0 -5 -12 -24
-26 -43 -36 -47 -71 -130 -79 -186 -4 -26 -11 -50 -16 -53 -16 -10 -10 -80 9
-96 21 -18 107 -48 139 -48 34 0 28 -16 -9 -27 -30 -8 -33 -13 -31 -43 2 -50
14 -103 25 -117 7 -9 2 -14 -19 -19 -58 -14 -69 -45 -29 -83 l24 -22 -41 -40
c-46 -44 -56 -46 -147 -23 -63 17 -66 16 -112 -4 -52 -24 -81 -56 -98 -107 -9
-28 -23 -40 -83 -70 -40 -20 -88 -52 -109 -72 -20 -19 -47 -40 -60 -47 -18 -9
-23 -20 -23 -51 0 -40 0 -40 45 -47 98 -15 227 -7 306 17 17 5 27 -1 48 -28
l27 -35 -35 -71 c-29 -56 -36 -82 -36 -126 l0 -56 44 -20 c26 -11 59 -37 78
-61 18 -24 41 -51 51 -60 19 -20 22 -44 7 -53 -14 -9 -12 -64 4 -118 11 -37
30 -62 88 -116 53 -50 78 -82 91 -118 10 -26 23 -56 28 -65 5 -10 9 -38 9 -63
0 -81 43 -101 149 -69 63 18 79 14 130 -36 36 -36 111 -150 111 -169 0 -14 44
-47 112 -85 88 -48 160 -114 177 -163 7 -21 33 -69 58 -108 26 -38 56 -85 67
-102 12 -18 37 -40 56 -49 19 -9 43 -21 52 -25 10 -5 26 -9 37 -9 18 0 62 -16
128 -46 17 -8 34 -14 39 -14 4 0 40 -34 81 -76 72 -74 73 -76 73 -127 0 -77 8
-97 41 -104 16 -3 31 -13 34 -23 3 -9 17 -22 30 -28 21 -10 25 -19 25 -51 0
-22 5 -51 11 -64 11 -25 57 -57 82 -57 9 0 24 -12 34 -26 15 -21 28 -26 64
-28 35 -1 46 -5 54 -24 10 -24 52 -31 71 -12 7 7 44 8 119 0 125 -11 154 -27
210 -114 18 -28 50 -67 72 -88 35 -33 111 -68 149 -68 9 0 41 -23 71 -50 30
-28 61 -50 70 -50 8 0 24 -11 35 -25 11 -14 30 -25 43 -25 24 0 85 30 85 42 0
3 44 4 98 1 80 -4 103 -9 132 -29 19 -13 59 -33 88 -45 l54 -22 67 21 c83 27
115 27 183 3 29 -11 74 -23 99 -26 40 -6 49 -3 78 20 l32 28 32 -33 c62 -63
98 -62 166 7 25 24 76 60 115 80 39 19 85 46 103 59 37 28 118 140 145 202 10
23 24 42 31 42 7 0 37 -9 67 -20 30 -11 82 -23 114 -27 56 -6 60 -5 82 22 18
23 29 28 65 27 34 0 56 8 96 35 l53 35 31 -26 c71 -60 119 -39 119 51 0 29 4
53 10 53 5 0 33 -9 61 -19 64 -25 89 -14 89 38 0 37 -18 110 -31 125 -5 5 3
24 16 42 14 18 25 39 25 46 1 20 30 -23 30 -44 0 -41 58 -113 109 -134 18 -8
62 -14 96 -14 70 0 79 7 153 114 37 54 54 63 86 46 13 -6 46 -13 75 -13 49 -2
53 0 84 37 18 22 54 65 80 95 27 31 58 75 68 99 19 41 19 45 4 69 -22 33 -19
35 112 62 76 17 108 20 116 12 6 -6 37 -11 68 -11 50 0 60 -3 78 -26 12 -15
21 -33 21 -41 0 -23 31 -63 50 -63 10 0 62 23 116 50 55 28 141 64 193 80 l94
30 38 -35 c43 -39 80 -45 117 -19 20 14 23 14 29 -3 12 -35 45 -73 62 -73 10
0 28 11 41 25 28 30 41 31 65 5 10 -11 32 -28 49 -38 31 -19 31 -19 76 10 57
36 127 68 149 68 10 0 39 -11 67 -23 59 -29 166 -51 197 -41 41 12 58 35 51
68 l-6 29 43 -31 c24 -18 47 -32 51 -32 5 0 25 -11 46 -24 57 -37 102 -38 133
-2 11 13 39 32 62 42 80 34 97 51 97 96 0 31 6 45 25 60 14 11 25 29 25 41 1
52 36 67 155 67 94 0 97 1 127 30 16 17 34 30 40 30 6 0 32 -16 59 -36 36 -26
66 -39 114 -47 l64 -11 61 66 c33 37 71 70 83 74 33 10 75 53 87 89 6 18 14
68 18 111 7 75 8 79 32 82 44 5 84 24 118 56 28 26 32 36 32 82 0 30 -9 72
-20 100 -18 41 -19 54 -10 100 6 28 20 60 30 69 21 19 32 49 50 143 l13 62 36
0 c46 0 109 33 190 101 120 101 128 110 140 171 15 69 7 104 -30 142 -32 31
-35 41 -16 53 6 4 36 36 66 71 29 34 59 62 66 62 8 0 28 14 45 32 28 28 31 36
27 77 -2 25 -7 55 -11 66 -5 16 4 27 39 53 62 45 105 122 105 189 0 47 -3 54
-30 70 -16 9 -30 23 -30 31 0 21 68 85 145 134 85 54 143 111 163 158 7 19 21
43 29 52 13 14 15 36 10 115 l-5 98 49 101 c52 107 50 106 146 134 66 20 99
62 117 150 9 41 16 105 16 142 0 57 -4 71 -26 97 -14 17 -22 36 -19 42 10 15
95 93 108 98 10 4 48 34 79 63 10 10 56 42 102 72 95 61 112 86 122 171 7 53
19 77 69 131 5 6 25 29 44 52 33 41 34 42 99 42 49 0 73 5 101 22 51 31 59 41
73 86 10 32 18 42 41 46 46 9 115 7 122 -4 9 -14 84 -47 126 -55 46 -8 89 12
120 57 34 50 81 98 111 114 14 7 51 17 82 20 66 8 92 30 82 70 -4 14 -14 33
-21 41 -20 20 -19 30 5 38 12 4 50 37 86 73 86 88 92 94 94 112 5 31 -1 40
-45 65 -41 25 -44 29 -38 58 3 18 17 54 31 80 40 78 30 118 -57 221 -65 77
-76 86 -116 91 -56 9 -94 0 -180 -41 -69 -33 -70 -33 -100 -16 -28 17 -30 23
-35 93 -6 79 -27 127 -80 184 -15 17 -40 50 -55 75 -31 51 -62 79 -87 80 -9 0
-34 -11 -54 -25 -43 -29 -66 -31 -104 -9 -52 31 -140 191 -140 256 0 20 -11
33 -50 58 -49 31 -50 33 -47 78 2 40 -1 47 -23 59 -14 7 -51 13 -82 13 -51 0
-65 -5 -135 -50 -82 -53 -123 -62 -159 -35 -21 16 -139 21 -148 6 -3 -4 -58
-16 -123 -26 -112 -17 -120 -20 -148 -52 l-31 -34 -49 12 c-28 7 -68 20 -90
30 -42 18 -119 86 -146 129 -28 45 -49 122 -49 182 0 84 -18 108 -82 108 -27
0 -61 6 -76 14 -25 13 -84 84 -107 131 -15 30 -50 30 -100 0 -50 -29 -76 -32
-150 -21 -59 9 -75 -3 -97 -69 -11 -31 -18 -39 -33 -37 -11 2 -59 3 -107 3
-96 1 -155 -18 -197 -65 -14 -14 -30 -26 -37 -26 -7 0 -28 18 -46 40 -47 60
-86 80 -150 80 -51 0 -56 3 -98 46 -42 42 -48 45 -85 40 -37 -4 -42 -2 -57 25
-18 30 -43 36 -83 19z"/>
</g>
</svg>
